<?xml version="1.0" encoding="UTF-8" standalone="no"?>
<!DOCTYPE svg PUBLIC "-//W3C//DTD SVG 1.1//EN" "http://www.w3.org/Graphics/SVG/1.1/DTD/svg11.dtd">
<!-- Created with Vectornator (http://vectornator.io/) -->
<svg height="100%" stroke-miterlimit="10" style="fill-rule:nonzero;clip-rule:evenodd;stroke-linecap:round;stroke-linejoin:round;" version="1.1" viewBox="0 0 106.008 104.687" width="100%" xml:space="preserve" xmlns="http://www.w3.org/2000/svg" xmlns:vectornator="http://vectornator.io" xmlns:xlink="http://www.w3.org/1999/xlink">
<defs/>
<clipPath id="ArtboardFrame">
<rect height="104.687" width="106.008" x="0" y="0"/>
</clipPath>
<g clip-path="url(#ArtboardFrame)" id="SvgjsG2685" vectornator:layerName="SvgjsG2685">
<g opacity="1">
<path d="M19.3902 15.0255L19.8812 15.0255L19.4884 14.8291L19.3902 15.0255ZM20.6669 14.4363C20.6669 14.5345 20.6669 14.5345 20.7651 14.5345L21.1579 14.2399C20.9615 14.1417 20.8633 14.1417 20.6669 14.4363ZM16.8369 17.0878L17.1315 16.8914C17.2297 16.7932 17.2297 16.695 17.2297 16.695L17.0333 16.695L16.8369 17.0878C16.7387 16.9896 16.7387 17.0878 16.8369 17.0878ZM18.9974 14.2399L18.8992 14.2399L18.7028 14.4363L18.9974 14.4363L18.9974 14.2399ZM16.9351 16.5968L17.5243 16.1058C17.6225 16.0076 17.6225 15.9094 17.6225 15.8112L17.3279 15.8112L16.1494 16.8914L15.953 17.2842L16.6404 16.695L16.9351 16.5968Z" fill="#ff4a3f" fill-rule="nonzero" opacity="1" stroke="none"/>
<path d="M9.47141 24.5515L9.47141 24.3551C9.54788 23.9179 9.79524 23.5292 10.1589 23.2748L11.0427 22.6856L11.5337 22.0963L12.2212 21.4089L12.614 21.0161L13.0068 20.7214C13.3576 20.5198 13.6333 20.2096 13.7925 19.8376L14.1853 19.3466C14.5705 18.9688 14.901 18.5391 15.1674 18.0699L15.3638 17.7753L15.6584 17.5789L15.462 17.2842L15.8548 16.7932C16.6404 16.204 17.2297 15.4183 18.0153 14.8291L18.3099 14.5345C18.4144 14.2955 18.5847 14.0911 18.801 13.9452L19.5866 13.5524L19.9794 13.5524C20.2686 13.4393 20.5108 13.2316 20.6669 12.9632L20.6669 12.7668C20.9567 12.1989 21.3987 11.7229 21.9436 11.3919L22.7292 10.9009L22.9256 10.7044L23.3184 10.3116L24.3005 9.82059L24.4969 9.82059L23.4167 10.2134L22.0418 11.1955C21.4525 11.6865 20.6669 11.7847 20.2741 12.5704L20.5687 12.5704C19.8812 12.7668 19.1938 13.0614 18.8992 13.7488C18.6046 14.4363 18.1135 14.3381 17.7207 14.6327C17.5427 14.6786 17.4203 14.8418 17.4261 15.0255C16.6404 14.9273 16.3458 15.5165 15.953 15.9094L15.953 16.695C15.312 16.9989 14.768 17.4749 14.3817 18.0699C12.8104 18.1681 12.8104 20.1322 11.4355 20.525L11.3373 20.525C11.3022 20.5858 11.3022 20.6607 11.3373 20.7214C11.0427 20.7214 10.8463 20.9179 10.9445 21.2125L10.7481 21.7035C10.0606 22.0963 10.1589 22.7838 9.76603 23.373C8.98038 23.864 8.68577 24.8461 8.09653 25.5335L8.39115 26.0246L8.58756 25.8282C8.8528 25.383 9.1481 24.9564 9.47141 24.5515ZM52.8784 3.2408L53.4677 3.43721L53.6641 3.43721C54.0883 3.65221 54.5715 3.72125 55.039 3.63362C55.66 3.51959 56.2992 3.55323 56.9049 3.73183L58.0833 3.73183C58.5006 3.64176 58.936 3.75062 59.2618 4.02644C59.2794 4.05683 59.2794 4.09426 59.2618 4.12465L58.869 4.12465C58.8515 4.15503 58.8515 4.19247 58.869 4.22285L59.5564 4.22285C59.9671 4.06381 60.4224 4.06381 60.8331 4.22285C61.0295 4.22285 60.9313 4.32106 61.0295 4.41927L61.5206 4.61568L61.3241 4.61568C61.1277 4.22285 60.8331 4.22285 60.5385 4.22285C59.217 3.60916 57.7723 3.30679 56.3156 3.339L55.53 3.339C54.3862 2.98952 53.1872 2.8563 51.9946 2.94618L52.191 2.94618L52.8784 3.2408ZM60.0475 6.28518L60.2439 6.28518L60.0475 6.28518ZM67.4129 6.77621C67.668 7.03872 68.0585 7.11682 68.395 6.97262L68.9842 6.97262C68.4832 6.56109 67.8639 6.32025 67.2165 6.28518L66.5291 6.08877L67.0201 6.38339L67.4129 6.77621ZM64.0739 5.49953C64.0739 5.59774 64.1721 5.69594 64.2703 5.79415L64.4667 5.79415L64.9578 5.49953C64.4505 5.18459 63.8809 4.98355 63.2883 4.9103L63.9757 5.30312L64.0739 5.49953ZM71.3411 8.15109L72.1268 8.64212C71.9304 8.3475 71.734 8.15109 71.3411 8.15109Z" fill="#ff4a3f" fill-rule="nonzero" opacity="1" stroke="none"/>
<path d="M97.1693 74.7347L97.7585 73.1634L98.3478 71.6903C98.5442 71.1993 98.937 69.9226 99.1334 69.137C99.1784 68.8885 99.2791 68.6534 99.428 68.4495L99.5262 68.4495L99.5262 67.3693C100.017 67.2711 99.9191 66.78 100.017 66.4854L100.803 61.8697C101.306 59.8713 101.306 57.7794 100.803 55.781C100.892 55.2094 100.71 54.629 100.312 54.2097L100.312 49.9868C100.017 49.103 100.607 48.1209 99.9191 47.3353L99.1334 44.1927C99.1501 44.1283 99.1501 44.0607 99.1334 43.9963L98.937 43.407C98.8824 43.2818 98.8824 43.1394 98.937 43.0142L99.0352 43.0142C99.3298 43.0142 99.3298 42.5232 99.3298 42.1303C99.2711 41.748 99.1376 41.3809 98.937 41.0501L98.6424 40.6573C98.5008 40.457 98.4315 40.2146 98.446 39.9698C98.4796 39.309 98.4134 38.6468 98.2496 38.0057L98.2496 37.4165C98.0532 36.729 97.8567 35.9434 97.6603 35.2559L97.4639 34.7649C97.2493 34.441 97.1147 34.0707 97.0711 33.6846C97.0187 33.4078 96.919 33.142 96.7765 32.899L96.1872 31.9169C96.0261 31.7733 95.8131 31.7023 95.598 31.7205L95.4998 31.7205L95.4998 31.4259L95.3034 31.4259L95.3034 30.6402L95.2052 30.6402L95.2052 30.4438C95.2093 30.4112 95.2093 30.3782 95.2052 30.3456L95.2052 30.1492C95.3034 29.9528 95.3034 29.8546 95.107 29.6582C94.9376 29.4903 94.804 29.2899 94.7142 29.069L94.5177 28.4797C94.3875 28.037 94.1515 27.6326 93.8303 27.3012C93.623 27.1066 93.4561 26.873 93.3393 26.6138L92.6518 25.0425C92.5009 24.6899 92.3027 24.3595 92.0626 24.0605L91.4734 23.2748C91.2943 23.0399 91.1611 22.7733 91.0805 22.4892L90.8841 22.1945C90.78 22.0536 90.744 21.8736 90.7859 21.7035C90.7859 21.549 90.7132 21.4034 90.5895 21.3107L90.1967 21.0161L90.1967 21.2125C90.2949 21.4089 90.1967 21.5071 90.0985 21.5071L89.9021 21.5071L90.1967 22.4892L90.4913 22.9802L91.1787 23.864L91.0805 23.864L90.8841 23.6676L90.6877 23.4712C90.5969 22.8793 90.1068 22.4301 89.5092 22.391L89.5092 21.7035C89.2146 20.525 87.9379 20.4268 87.3487 19.6412C87.1599 19.1838 86.7541 18.8518 86.2684 18.7573L85.4828 17.8735C84.6666 16.705 83.633 15.7047 82.4384 14.9273L81.6528 14.3381L81.2599 14.0434C80.5725 13.356 80.2779 12.2757 79.0994 12.2757L78.3138 11.7847L77.4299 11.0973C77.1144 10.3838 76.4387 9.89579 75.6622 9.82059C75.0235 9.23964 74.2454 8.83368 73.4035 8.64212L73.5999 8.83853L74.0909 9.23136L75.3676 9.9188C76.1327 10.332 76.8285 10.8621 77.4299 11.4901C77.8691 11.916 78.3648 12.2794 78.903 12.5704L79.4922 13.0614C79.5904 13.1596 79.6886 13.2578 79.5904 13.356L79.4922 13.356L78.6084 13.0614C77.909 12.9291 77.242 12.6623 76.6443 12.2757L75.4658 11.6865L74.1891 10.9991L73.9927 10.9991C73.6981 10.9009 73.5999 10.6062 73.2071 10.508L72.4214 10.3116L69.9663 9.82059C69.6244 9.65966 69.3225 9.42487 69.0824 9.13315C68.7658 9.12081 68.4592 9.01862 68.1986 8.83853L67.2165 8.44571C66.2803 8.25811 65.3607 7.99537 64.4667 7.66006L63.8775 7.46365L62.8954 7.16903L62.4044 7.16903L62.208 6.87441L62.208 6.77621L60.6367 6.77621L60.0475 6.28518L59.6546 6.48159L59.2618 6.678L59.0654 6.678L58.1816 6.18697C57.5923 6.77621 57.1013 5.99056 56.6103 6.08877L55.6282 5.79415C55.2636 6.00466 54.8143 6.00466 54.4497 5.79415L53.2713 5.79415C52.9847 5.74573 52.7762 5.49555 52.7802 5.20491L53.0748 5.0085L53.6641 5.0085C53.7189 5.09793 53.7525 5.19871 53.7623 5.30312C53.7623 5.49953 53.9587 5.49953 54.2533 5.49953L54.4497 5.49953L54.0569 4.9103C53.7815 4.68787 53.4146 4.61449 53.0748 4.71388L52.0928 5.0085L51.9946 5.0085C52.2892 5.20491 52.191 5.30312 52.191 5.49953L50.6197 5.49953L50.2269 5.30312L49.4412 4.9103L49.343 4.9103L48.6556 4.71388L46.3968 4.71388L46.7897 4.51747L47.5753 4.32106L47.8699 4.32106L49.5394 4.02644L50.6197 3.83003L51.2089 3.63362L50.1287 3.63362C49.0273 3.40601 47.891 3.40601 46.7897 3.63362L45.513 3.63362L42.174 3.53541C40.7991 3.63362 39.4242 3.53541 38.344 4.71388C35.8888 4.32106 33.7283 5.40133 31.5677 6.48159L29.4072 7.36544C28.0406 7.55898 26.7694 8.17738 25.7736 9.13315L26.0682 9.13315L26.5592 8.83853L27.3449 8.3475L28.6216 7.75827L29.6036 7.56186C30.1985 7.14907 30.8643 6.84945 31.5677 6.678L32.4516 6.38339L32.648 6.38339C32.7462 6.5798 33.139 6.38339 33.3355 6.38339L33.5319 6.38339C33.6301 6.38339 33.6301 6.48159 33.5319 6.48159L32.9426 6.87441L33.9247 6.5798L34.7103 6.38339L33.4337 7.07083L32.157 7.46365C31.9021 7.54069 31.6895 7.7179 31.5677 7.95468L31.2731 8.44571L31.5677 8.44571L31.9606 8.2493C32.1644 7.94241 32.4828 7.73013 32.8444 7.66006L34.3175 7.16903L34.8085 7.16903C34.8628 7.14191 34.9287 7.1639 34.9559 7.21814C34.983 7.27237 34.961 7.33833 34.9067 7.36544C34.7103 7.56186 34.3175 7.66006 34.1211 7.85647L34.3175 7.85647L31.1749 8.74033L27.4431 10.3116C26.8018 10.889 26.0247 11.2944 25.1844 11.4901C24.6867 11.9339 24.1236 12.2983 23.5149 12.5704L22.7292 12.7668C22.5061 13.28 22.0114 13.6224 21.4525 13.6506L21.1579 14.1417C20.8502 14.5848 20.4476 14.9538 19.9794 15.2219L19.8812 15.2219L19.8812 15.1237L19.6848 15.3201L19.4884 15.5165L18.5064 15.7129L18.0153 15.7129L17.6225 16.204C17.5243 16.3022 17.5243 16.4004 17.6225 16.4004L17.7207 16.4004C17.1315 16.9896 16.7387 17.7753 15.953 18.0699L14.6763 19.543C14.0871 20.7214 12.9086 21.1143 12.123 22.0963C11.3373 23.0784 10.7481 25.9264 8.29294 26.3192L8.09653 26.0246L7.90012 26.5156C7.81377 26.7975 7.681 27.063 7.5073 27.3012C7.06572 27.9597 6.67189 28.6489 6.32882 29.3636C6.24341 29.5122 6.20892 29.6846 6.23062 29.8546C6.24551 30.1303 6.17707 30.404 6.03421 30.6402L5.54318 31.7205L5.73959 31.7205C6.03421 31.7205 6.03421 32.0151 6.13241 32.3097L6.91806 31.2295C7.06371 30.9613 7.26454 30.727 7.5073 30.542C7.8903 30.3515 8.20064 30.0412 8.39115 29.6582L8.68577 29.3636L9.07859 28.9707L9.66783 27.8905L9.86424 27.8905C9.96244 27.9887 9.96244 27.9887 10.0606 27.8905L10.2571 27.4977L10.7481 27.4977L10.7481 28.2833L11.2391 27.7923C11.3268 27.6404 11.3268 27.4532 11.2391 27.3012C11.23 27.1937 11.2655 27.0872 11.3373 27.0066C11.4667 26.8638 11.5668 26.697 11.6319 26.5156C11.7334 26.1101 12.0268 25.78 12.4176 25.6317L12.7122 25.4353L13.0068 25.1407C13.3528 24.8906 13.6244 24.5511 13.7925 24.1587L13.5961 23.864C13.5961 23.7658 13.6943 23.5694 13.7925 23.4712L14.2835 23.4712L14.8727 22.6856L15.462 22.391L15.6584 22.391C13.6426 24.5753 11.8343 26.9424 10.2571 29.4618L10.1589 29.4618L10.2571 29.4618C8.05801 32.89 6.30871 36.5866 5.05215 40.4608L4.56112 40.4608L4.07009 40.068C3.87368 39.8716 3.97188 39.3806 3.67726 39.1842L3.77547 39.1842C4.07009 38.6931 3.67726 38.0057 4.07009 37.5147C4.46291 37.0236 4.16829 36.1398 3.18623 36.3362C2.20418 36.5326 1.71315 36.8272 1.90956 37.8093C2.10597 38.7913 0.927499 39.577 0.829293 40.6573C0.731087 41.7375 0.338263 41.1483 0.534675 41.5411L0.534675 45.3711C0.632881 46.1568 0.0436454 47.1388 1.32032 47.4335L2.597 48.3173C2.69521 48.8083 2.10597 49.8886 3.48085 49.594C3.29934 51.2247 3.201 52.8636 3.18623 54.5043C3.18623 55.5846 3.28444 56.6648 3.28444 57.7451L3.28444 57.3523C3.18623 56.9594 3.18623 56.5666 3.08803 56.0756L2.79341 56.3702L2.79341 56.1738L2.30238 56.1738C2.30238 56.6648 2.20418 56.9594 1.90956 57.0576C1.83017 57.2084 1.79607 57.379 1.81135 57.5487C1.81135 57.6469 1.90956 57.8433 2.00776 57.7451C2.10597 57.6469 2.40059 57.9415 2.69521 58.1379C2.98982 58.3343 2.49879 58.4325 2.30238 58.3343C2.10597 58.2361 2.10597 58.4325 2.10597 58.6289L2.10597 58.9236L2.597 60.3966C2.597 60.6913 2.49879 60.9859 2.49879 61.2805C2.49879 61.5545 2.56625 61.8243 2.69521 62.0661L2.40059 62.0661L2.40059 61.7715L1.71315 61.5751L1.71315 60.9859C1.74062 60.8234 1.74062 60.6574 1.71315 60.4948C1.57818 59.9123 1.47978 59.3219 1.41853 58.7271C1.23192 57.5916 1.16608 56.4394 1.22212 55.2899C1.20683 55.1202 1.24094 54.9497 1.32032 54.7989L1.32032 54.9953C1.36741 55.1558 1.40027 55.3201 1.41853 55.4863C1.41638 55.6236 1.45024 55.7591 1.51673 55.8792C1.61494 56.0756 1.71315 56.272 1.90956 56.272C2.10597 56.272 2.00776 56.1738 2.00776 56.0756C1.9951 55.9085 1.96212 55.7436 1.90956 55.5846C1.74396 55.1774 1.6445 54.7464 1.61494 54.3079C1.57751 54.0572 1.47603 53.8204 1.32032 53.6204C1.16955 53.3515 1.10124 53.0441 1.12391 52.7366L1.12391 51.9509C1.12391 51.6563 1.22212 51.3617 1.22212 51.0671C1.24741 50.9281 1.21162 50.785 1.12391 50.6743L1.0257 50.6743C0.240057 51.0671 0.338263 50.8707 0.0436454 52.2456L0.0436454 54.0133C0.0436454 54.7007-0.0545605 55.3881 0.0436454 56.0756C0.0282231 56.8333 0.0940698 57.5906 0.240057 58.3343C0.262901 58.4972 0.262901 58.6625 0.240057 58.8253C0.229354 59.1232 0.262442 59.421 0.338263 59.7092C0.418064 60.1298 0.451001 60.558 0.436469 60.9859C0.3775 61.5501 0.444586 62.1203 0.632881 62.6554C0.654858 62.7854 0.654858 62.9182 0.632881 63.0482C0.614567 63.314 0.647916 63.5808 0.731087 63.8339C0.82419 64.1216 0.889952 64.4176 0.927499 64.7177C1.03279 65.4499 1.197 66.1724 1.41853 66.8782C1.5173 67.198 1.58311 67.5271 1.61494 67.8603C1.65989 68.1088 1.76063 68.3438 1.90956 68.5477C2.16031 68.8983 2.3282 69.3013 2.40059 69.7262C2.47858 70.0593 2.57697 70.3873 2.69521 70.7083L3.08803 72.0831C3.20946 72.6009 3.4081 73.0975 3.67726 73.5562C4.02927 74.2059 4.29346 74.8994 4.46291 75.6186L4.65932 76.1096C4.90874 76.3866 5.07843 76.7259 5.15035 77.0917C5.22336 77.3787 5.35734 77.6467 5.54318 77.8773C5.65232 78.0199 5.72025 78.1898 5.73959 78.3683C5.83779 78.6629 5.936 78.7612 6.13241 78.6629L6.23062 78.6629L6.23062 79.5468L6.72165 80.5289L7.21268 81.5109L8.29294 82.6894L8.68577 83.0822C8.98038 83.3768 9.37321 83.5732 9.56962 84.0643L9.96244 84.3589C10.1274 84.4719 10.2349 84.6512 10.2571 84.8499L10.4535 85.5374C10.5999 85.8624 10.799 86.161 11.0427 86.4212L11.4355 86.6176L11.7302 86.6176C11.7875 86.6377 11.8323 86.6832 11.8515 86.7409C11.8707 86.7985 11.8622 86.8618 11.8284 86.9122C11.8119 87.0755 11.8119 87.24 11.8284 87.4033C11.8947 87.6096 12.0345 87.7843 12.2212 87.8943L12.4176 87.8943C12.8104 87.7961 13.2032 88.0907 13.5961 88.5817L13.6943 88.5817C13.6943 88.4835 13.7925 88.4835 13.6943 88.3853L13.6943 88.1889C13.6943 88.0907 13.7925 87.9925 13.8907 88.0907C14.0827 88.2242 14.1937 88.4462 14.1853 88.6799L14.1853 88.8764C14.2574 89.2864 14.3898 89.6835 14.5781 90.0548C15.0692 90.3495 15.0692 90.3495 15.0692 90.153C15.0692 89.9566 15.0692 89.9566 15.2656 89.9566L15.6584 89.9566L15.8548 90.2512L16.6404 90.7423C17.3279 91.5279 18.4082 91.4297 19.1938 91.9207L20.8633 93.5902L21.0597 93.5902C21.3491 94.3052 21.9161 94.8721 22.631 95.1615C22.847 95.502 23.211 95.7204 23.6131 95.7508C23.6131 96.2418 24.2023 96.34 24.6933 96.4382C24.8948 96.6655 25.1763 96.8062 25.479 96.831L25.6754 96.831C26.0558 97.227 26.6066 97.4106 27.1485 97.3221L28.0323 98.1077L30.3893 98.9916L30.3893 99.188C30.8803 100.268 32.0588 99.8754 32.8444 100.17L33.9247 100.563L34.3175 100.563C35.496 100.857 36.6745 101.447 37.9511 101.054C37.9129 101.182 37.9129 101.319 37.9511 101.447C39.0314 102.134 40.3081 101.447 41.4865 101.84C42.0207 102.039 42.6023 102.073 43.156 101.938L43.2543 101.938L44.0399 102.134L44.3345 102.134L45.2184 102.331L45.513 102.331C45.6649 102.243 45.8521 102.243 46.004 102.331C46.481 102.51 46.9744 102.641 47.4771 102.723L48.0663 102.723C48.279 102.601 48.5411 102.601 48.7538 102.723L52.5838 102.723C53.1095 102.775 53.64 102.742 54.1551 102.625L55.1372 102.625L55.6282 102.429L58.869 102.429L59.4582 102.232L59.9493 101.938L62.1098 101.938L62.1098 102.527L60.8331 102.527L59.6546 102.723C59.2618 102.822 58.9672 102.723 58.6726 102.822C58.3631 102.957 58.0282 103.024 57.6905 103.018L56.4138 103.313L56.021 103.313C55.5294 103.224 55.0235 103.258 54.5479 103.411L52.7802 103.411C52.4991 103.537 52.1775 103.537 51.8964 103.411L47.4771 103.411C47.0909 103.337 46.6924 103.446 46.3968 103.705L46.1022 103.705L45.8076 103.509L45.8076 103.214L44.6291 103.214C44.2225 103.047 43.7912 102.948 43.3525 102.92L40.8973 102.92L40.2099 102.723L39.7188 102.527L37.6565 102.134L37.1655 102.134L36.6745 101.938L34.6121 101.25L33.2372 100.857L31.0767 100.857C30.9785 100.857 30.9785 100.956 30.9785 101.054L31.1749 101.054C32.4516 101.545 33.7283 101.938 35.005 102.527L35.2996 102.527L36.1834 102.723L37.5583 103.116L38.835 103.116L39.4242 103.313L40.1117 103.607L41.7812 103.902L42.8614 104.098L43.9417 104.295L44.7273 104.295L45.513 104.491L48.5574 104.491L49.5394 104.688L51.7982 104.688L52.7802 104.491L54.9408 104.491C55.3336 104.491 55.53 104.393 55.6282 104.196L56.6103 104.196C56.903 104.221 57.1913 104.113 57.3959 103.902C57.2977 104 57.3959 104 57.4941 104.098L57.8869 104.098L57.8869 103.902C57.8869 103.804 57.8869 103.804 58.0833 103.705C58.2798 103.607 58.6726 103.607 58.7708 103.804L59.1636 103.804L59.4582 103.607C59.6546 103.607 59.6546 103.607 59.6546 103.705L60.3421 103.705L60.8331 103.509L61.6188 103.116C61.717 103.411 62.0116 103.509 62.8954 103.313L64.1721 102.92L65.3506 102.92C66.2344 102.822 67.3147 102.92 68.0021 102.232L68.1986 102.232L68.5914 101.938L69.6716 101.643C70.3678 101.5 71.0328 101.234 71.6358 100.857L72.0286 100.661L72.1268 100.661L73.0106 100.072L73.4035 99.8754L73.8945 99.679L74.2873 99.679C74.6801 99.5808 74.6801 99.5808 74.7784 99.2862C74.8766 98.9916 74.7784 99.188 74.5819 99.188L74.4837 99.188L74.8766 98.697L75.073 98.697C75.3676 98.5987 75.564 98.5005 75.7604 98.5987L75.9568 98.5987C76.3854 98.4784 76.7203 98.1435 76.8407 97.7149C77.1353 97.3221 77.9209 97.5185 78.1174 96.9292L82.3402 93.8849C83.4205 93.7867 83.7151 92.8046 84.5007 92.2154C85.2864 91.6261 86.7595 91.1351 87.4469 90.0548L88.3308 89.662L88.429 89.662C88.9428 89.7877 89.4639 89.4837 89.6074 88.9746L89.6074 89.3674C90.3931 88.9746 91.3752 89.662 92.1608 88.8764C92.9464 88.0907 92.1608 86.2248 93.1429 85.1445L93.8303 84.6535C94.5727 83.3818 95.0722 81.9831 95.3034 80.5289L95.4998 80.3324C95.4998 80.0378 95.4998 79.645 95.8926 79.4486C96.2539 79.1662 96.3392 78.6544 96.089 78.2701L95.8926 78.2701C95.9453 78.179 95.9453 78.0667 95.8926 77.9755C96.5801 77.9755 96.6783 77.2881 97.0711 76.9934L97.0711 75.6186C97.0579 75.5538 97.0579 75.487 97.0711 75.4221C97.1251 75.1966 97.158 74.9664 97.1693 74.7347Z" fill="#ff4a3f" fill-rule="nonzero" opacity="1" stroke="none"/>
<path d="M25.8718 9.13315L25.5772 9.32956L25.1844 9.62418L25.6754 9.42777L25.8718 9.13315ZM31.8624 7.16903L31.9606 7.16903L32.2552 6.97262L31.8624 6.97262L31.8624 7.16903ZM29.309 8.15109L29.2108 8.2493L29.309 8.2493L29.309 8.15109ZM8.98038 25.73L8.58756 26.1228L8.78397 26.1228C8.92336 26.0441 9.00106 25.8887 8.98038 25.73ZM11.9266 22.2927C12.0557 22.1134 12.1552 21.9144 12.2212 21.7035C12.0207 21.8257 11.8524 21.9941 11.7302 22.1945C11.6319 22.2927 11.6319 22.391 11.7302 22.391L11.9266 22.2927ZM10.7481 23.7658L10.7481 23.5694C10.5517 23.5694 10.2571 23.864 9.96244 23.864L9.96244 24.0605C10.2571 24.3551 10.3553 24.2569 10.7481 23.7658ZM72.5196 9.03495L72.6178 9.03495L72.1268 8.74033L72.5196 9.03495ZM70.0645 7.66006C70.5555 7.56186 70.8501 8.05289 71.2429 8.15109L71.3411 8.15109L71.0465 7.95468L70.0645 7.46365L68.9842 6.97262L69.2788 7.16903L70.0645 7.66006ZM63.2883 5.0085L63.1901 5.0085L62.0116 4.81209L62.5026 4.81209L63.2883 5.0085ZM65.2524 5.69594L66.5291 6.08877C66.1354 5.87059 65.7006 5.73681 65.2524 5.69594ZM56.4138 5.69594C56.523 5.55331 56.5909 5.38347 56.6103 5.20491L56.1192 5.20491L55.8246 5.49953L56.2174 5.79415L56.4138 5.69594ZM61.1277 5.99056C61.1244 6.02321 61.1244 6.05611 61.1277 6.08877L61.1277 5.99056ZM105.124 57.3523L104.829 57.3523L104.829 56.9594L105.124 56.9594C105.222 56.9594 105.32 56.6648 105.222 56.5666C105.124 56.4684 105.124 55.8792 104.928 55.781C104.804 55.7374 104.724 55.6173 104.731 55.4863L104.928 55.0935C104.944 55.0291 104.944 54.9615 104.928 54.8971L104.731 54.8971L104.535 54.6025C104.437 54.8971 104.338 55.1917 104.142 55.2899C104.129 55.3547 104.129 55.4215 104.142 55.4863C104.142 55.5846 104.142 55.6828 104.044 55.6828L103.946 55.6828C103.927 55.7852 103.894 55.8844 103.847 55.9774C103.654 56.2402 103.52 56.5417 103.454 56.8612C103.412 57.0003 103.45 57.1514 103.553 57.2541L103.651 57.2541C103.556 57.5043 103.522 57.7737 103.553 58.0397L103.553 58.4325C103.543 58.6 103.51 58.7654 103.454 58.9236L103.356 58.9236L102.963 59.611L102.963 60.2002C103.011 60.5851 102.905 60.9732 102.669 61.2805L102.472 61.2805L102.276 61.0841C102.121 60.8523 102.085 60.5612 102.178 60.2984C102.284 59.7487 102.317 59.1873 102.276 58.6289C102.276 58.5307 102.178 58.4325 102.178 58.4325C102.114 58.5175 102.08 58.6209 102.08 58.7271L102.08 59.3164C102.08 59.5128 101.981 59.9056 101.785 60.0038C101.589 60.102 101.687 60.2002 101.687 60.2984L101.49 60.8877L101.785 61.3787C101.589 61.5751 101.392 61.4769 101.294 61.2805L101.294 62.2626L101.589 62.2626L101.589 62.6554C101.412 63.0934 101.313 63.5585 101.294 64.0303C101.286 64.1611 101.286 64.2923 101.294 64.4231C101.299 64.8566 101.233 65.288 101.098 65.6998C101.068 65.8951 101.068 66.0937 101.098 66.289L100.803 66.9764C100.732 67.2165 100.634 67.4473 100.508 67.6639L100.214 68.2531L99.3298 70.9047C99.6245 71.7885 98.937 72.3778 98.5442 72.967C98.656 73.802 98.3644 74.6404 97.7585 75.2257L97.7585 75.6186C97.7585 75.7168 97.8567 75.815 98.0532 75.7168L98.446 75.4221L98.6424 75.0293L98.8388 75.0293C98.937 75.1275 99.0352 75.1275 99.2316 74.9311L99.428 74.9311C99.5902 75.0827 99.6305 75.3243 99.5262 75.5204C99.4571 75.7764 99.424 76.0408 99.428 76.306C99.428 76.4042 99.428 76.5024 99.5262 76.5024L99.7227 76.5024C99.8209 76.6006 99.9191 76.5024 100.017 76.2078L100.214 75.7168L100.508 75.7168C100.901 75.6186 100.901 75.6186 101.098 75.1275L101.589 74.2437L101.883 73.6544L102.276 72.6724C102.262 72.3213 102.365 71.9755 102.571 71.6903C102.708 71.5263 102.745 71.3008 102.669 71.1011C102.669 70.9047 102.669 70.8065 102.865 70.5119L103.16 70.119L103.651 69.137C103.687 68.8366 103.753 68.5406 103.847 68.2531C104.04 67.8551 104.141 67.4187 104.142 66.9764C104.203 66.6707 104.302 66.3737 104.437 66.0926L104.437 65.6016C104.338 65.4051 104.338 65.4051 104.437 65.0123C104.535 64.6195 104.535 64.8159 104.633 64.8159C104.705 64.8965 104.74 65.003 104.731 65.1105L104.928 64.6195C105.052 64.3412 105.119 64.0405 105.124 63.7356L105.124 63.441C105.124 63.3428 105.124 63.1464 105.026 63.1464L105.026 63.5392C104.829 63.5392 104.731 63.7356 104.535 63.8339C104.584 63.5743 104.617 63.3119 104.633 63.0482L105.026 62.8518C105.181 62.6978 105.254 62.479 105.222 62.2626C105.212 62.1646 105.212 62.0659 105.222 61.9679C105.355 61.5219 105.421 61.0585 105.419 60.5931L105.419 60.3966L105.713 59.4146L105.811 59.4146C105.897 59.343 105.936 59.2289 105.91 59.12L105.811 59.12C105.746 58.8417 105.819 58.549 106.008 58.3343C105.885 57.8858 105.557 57.5217 105.124 57.3523ZM8.88218 30.2474C8.90464 30.1839 8.90464 30.1146 8.88218 30.051L8.68577 29.8546L8.48935 30.051L8.19474 30.6402C8.19474 30.9349 7.90012 31.2295 7.90012 31.5241L7.90012 31.7205L7.99833 31.7205L8.88218 30.2474ZM103.454 54.6025L103.553 54.6025C103.761 54.2473 103.831 53.8276 103.749 53.424C103.713 53.2361 103.79 53.0444 103.946 52.933L104.044 52.933L104.044 52.7366L103.847 52.5402L103.749 52.5402C103.651 52.6384 103.553 52.8348 103.454 52.8348C103.356 52.8348 103.356 52.933 103.356 53.1294L103.356 53.424C103.279 53.8183 103.313 54.2264 103.454 54.6025ZM12.9086 88.4835C12.8104 88.4835 12.9086 88.6799 12.9086 88.7782L13.6943 89.5638L13.7925 89.5638C13.5961 89.2692 13.4979 88.9746 13.5961 88.8764C13.4162 88.8625 13.2448 88.794 13.105 88.6799L12.9086 88.4835ZM104.338 53.7186L104.437 53.7186C104.466 53.5233 104.466 53.3247 104.437 53.1294C104.142 53.2276 104.142 53.2276 104.142 53.7186C104.142 54.2097 104.24 53.8168 104.338 53.7186Z" fill="#ff4a3f" fill-rule="nonzero" opacity="1" stroke="none"/>
<path d="M104.731 60.8877C104.835 60.7467 104.871 60.5668 104.829 60.3966C104.829 60.2984 104.731 60.2002 104.731 60.2984L104.535 60.2984L104.535 60.4948C104.535 60.8877 104.633 60.9859 104.731 60.8877ZM104.829 52.8348L104.731 52.8348L104.731 53.424C104.824 53.2426 104.859 53.0366 104.829 52.8348ZM16.7387 90.9387L16.5422 90.9387L16.5422 91.1351L16.7387 91.3315L16.9351 91.3315L16.9351 91.1351L16.7387 90.9387ZM101.785 58.2361C101.785 58.1379 101.785 58.1379 101.687 58.1379L101.785 58.2361ZM9.66783 84.9481L10.1589 85.4392L9.76603 84.8499L9.66783 84.9481Z" fill="#ff4a3f" fill-rule="nonzero" opacity="1" stroke="none"/>
<path d="M9.47141 29.56L9.37321 29.56L9.37321 29.7564L9.37321 29.56L9.47141 29.56ZM91.1787 23.0784L90.9823 22.7838L90.8841 22.7838L91.1787 23.0784ZM5.64138 31.8187C5.69821 31.7684 5.73339 31.698 5.73959 31.6223L5.73959 31.8187L5.64138 31.8187ZM102.374 59.5128L102.374 59.611L102.374 59.5128ZM16.0512 90.8405L15.953 90.8405C16.0512 90.9387 16.1494 90.8405 16.0512 90.7423L16.0512 90.8405ZM16.2476 91.5279L16.3458 91.5279L16.2476 91.4297L16.2476 91.5279Z" fill="#ff4a3f" fill-rule="nonzero" opacity="1" stroke="none"/>
</g>
</g>
<g id="SvgjsG2686" vectornator:layerName="SvgjsG2686">
<path d="M28.7181 26.8579L46.4301 26.8579L46.4301 39.4859L56.7621 26.8579L78.1641 26.8579L58.8941 51.8679L79.1481 81.5519L58.0741 81.5519L46.4301 64.6599L46.4301 81.5519L28.7181 81.5519L28.7181 26.8579Z" fill="#ffffff" opacity="1" stroke="none"/>
</g>
</svg>
